<svg xmlns="http://www.w3.org/2000/svg" viewBox="0 0 200 200">
  <g transform="translate(0, 8)">
    <g id="hair-spiky" filter="url(#clean-shadow)">
      <path d="M 35 80 C 25 35, 60 5, 75 15 C 80 -10, 120 -10, 125 15 C 140 5, 175 35, 165 80 C 140 55, 120 40, 100 50 C 80 40, 60 55, 35 80 Z" fill="#ea580c" stroke="#9a3412" stroke-width="4" stroke-linejoin="round"/>
      <path d="M 60 25 Q 70 45, 85 40 M 100 15 Q 100 35, 100 45 M 140 25 Q 130 45, 115 40" fill="none" stroke="#9a3412" stroke-width="2" stroke-linecap="round"/>
      <path d="M 50 40 Q 60 60, 75 55 M 150 40 Q 140 60, 125 55" fill="none" stroke="#f97316" stroke-width="3" stroke-linecap="round"/>
    </g>
  </g>
</svg>
